<?xml version="1.0" standalone="no"?>
<!DOCTYPE svg PUBLIC "-//W3C//DTD SVG 20010904//EN"
 "http://www.w3.org/TR/2001/REC-SVG-20010904/DTD/svg10.dtd">
<svg version="1.0" xmlns="http://www.w3.org/2000/svg"
 width="64.000000pt" height="64.000000pt" viewBox="0 0 64.000000 64.000000"
 preserveAspectRatio="xMidYMid meet">

<g transform="translate(0.000000,64.000000) scale(0.100000,-0.100000)"
fill="#000000" stroke="none">
<path d="M260 541 c0 -5 24 -50 53 -100 49 -85 54 -91 85 -91 17 0 32 3 32 8
0 4 -24 48 -53 97 -48 80 -57 90 -85 93 -18 2 -32 -1 -32 -7z"/>
<path d="M380 544 c0 -3 29 -55 65 -115 l64 -109 -64 -109 c-36 -60 -65 -112
-65 -115 0 -3 15 -6 33 -6 32 0 36 5 100 115 l66 115 -66 115 c-64 110 -68
115 -100 115 -18 0 -33 -3 -33 -6z"/>
<path d="M183 528 c-6 -7 -35 -57 -66 -110 l-56 -98 60 -105 c33 -58 64 -107
68 -109 4 -3 36 44 70 105 l63 109 -52 93 c-75 129 -75 130 -87 115z"/>
<path d="M313 199 c-29 -50 -53 -95 -53 -100 0 -6 14 -9 32 -7 28 3 37 13 85
93 29 50 53 93 53 98 0 4 -15 7 -32 7 -31 0 -36 -6 -85 -91z"/>
</g>
</svg>
