<?xml version="1.0" standalone="no"?>
<!DOCTYPE svg PUBLIC "-//W3C//DTD SVG 20010904//EN"
 "http://www.w3.org/TR/2001/REC-SVG-20010904/DTD/svg10.dtd">
<svg version="1.0" xmlns="http://www.w3.org/2000/svg"
 width="512.000000pt" height="512.000000pt" viewBox="0 0 512.000000 512.000000"
 preserveAspectRatio="xMidYMid meet">

<g transform="translate(0.000000,512.000000) scale(0.100000,-0.100000)"
fill="#000000" stroke="none">
<path d="M2807 5013 c-13 -21 -166 -287 -342 -590 l-318 -553 -696 0 -696 0
-378 -655 -377 -655 377 -655 378 -655 710 0 710 -1 339 -589 339 -590 757 0
756 0 359 622 c198 343 367 637 377 654 l18 30 -345 598 c-190 329 -345 602
-345 608 0 5 147 264 326 575 180 311 328 573 330 582 2 9 -164 306 -369 661
l-373 645 -757 3 -757 2 -23 -37z m1694 -740 c167 -290 303 -530 302 -533 -1
-4 -137 -240 -302 -526 l-300 -519 -617 0 -617 0 -303 525 c-272 471 -302 527
-290 545 7 11 144 248 305 528 l293 507 612 0 613 0 304 -527z m-2074 -1183
c167 -289 303 -527 303 -530 0 -3 -136 -241 -303 -530 l-303 -525 -613 0 -614
0 -304 528 -305 527 252 438 c139 240 277 479 307 530 l54 92 612 -2 611 -3
303 -525z m2098 -1182 c168 -292 304 -536 301 -542 -3 -6 -139 -243 -303 -526
l-298 -515 -615 -2 -615 -2 -300 520 c-165 287 -301 525 -303 530 -3 6 483
859 590 1037 l20 32 608 0 608 0 307 -532z"/>
<path d="M3080 4595 l0 -95 439 0 438 0 249 -387 c137 -212 252 -391 256 -396
9 -14 161 82 154 98 -2 7 -129 206 -281 444 l-278 431 -488 0 -489 0 0 -95z"/>
<path d="M758 3005 c-137 -238 -248 -437 -248 -443 0 -10 341 -666 437 -839
l34 -63 79 40 c44 22 80 44 80 49 0 5 -95 188 -211 407 -209 396 -210 399
-195 429 8 16 109 194 224 395 186 322 208 366 194 376 -10 6 -46 27 -82 47
l-65 35 -247 -433z"/>
<path d="M4095 2220 c-39 -22 -74 -41 -80 -43 -5 -2 87 -183 205 -402 117
-219 213 -403 213 -409 0 -6 -90 -164 -200 -351 -110 -187 -205 -350 -212
-362 -11 -21 -6 -25 66 -68 61 -35 80 -42 89 -32 12 13 462 780 470 801 4 11
-453 877 -474 898 -4 4 -39 -11 -77 -32z"/>
</g>
</svg>
